<svg id="Layer_1" data-name="Layer 1" xmlns="http://www.w3.org/2000/svg" viewBox="0 0 703 202"><defs><style>.cls-1{fill:#666;}.cls-2{fill:#a3a3a3;}.cls-3{fill:#4d4d4d;}</style></defs><title>logoArtboard 9</title><path class="cls-1" d="M228.06,61.68a11.77,11.77,0,0,1,11.77-11.77h4.11a11.77,11.77,0,0,1,11.77,11.77V136.1a3.08,3.08,0,0,0,3.08,3.09h31.29A11.77,11.77,0,0,1,301.85,151v.16a11.77,11.77,0,0,1-11.77,11.77H239.83a11.77,11.77,0,0,1-11.77-11.77Z"/><path class="cls-1" d="M370.9,48C406,48,430,73.3,430,105.69c0,33.18-24,59.09-59.09,59.09s-59.1-25.91-59.1-59.09C311.8,73.3,335.82,48,370.9,48Zm0,91.48c17.85,0,30.49-14.53,30.49-33.81,0-18.49-12.64-32.39-30.49-32.39s-30.5,13.9-30.5,32.39C340.4,125,353,139.5,370.9,139.5Z"/><path class="cls-2" d="M507.41,48c18,0,32.07,6.63,36.66,9.95,4.74,3.48,5.21,7.11,2.21,12l-4.11,6.48c-3,4.74-6.79,5.05-12,2.37s-11.22-5.53-21-5.53c-22.6,0-32.55,15.17-32.55,32.23,0,20.86,14.85,34,32.07,34,12.84,0,20-5.81,22.33-8.18a3.07,3.07,0,0,0,.9-2.18v-3.46a3.07,3.07,0,0,0-3.08-3.08h-1.11a11.77,11.77,0,0,1-11.77-11.78h0a11.77,11.77,0,0,1,11.77-11.77h16.91a11.77,11.77,0,0,1,11.77,11.77v40.3a11.77,11.77,0,0,1-11.77,11.77h-2.13c-5.69,0-8.69-3-8.69-6.8v-.31a7.51,7.51,0,0,1,.15-1.58h-.31s-10,10.58-30,10.58c-29.08,0-55.62-22.12-55.62-57.67C448,72.67,472.81,48,507.41,48Z"/><path class="cls-2" d="M634.91,48C670,48,694,73.3,694,105.69c0,33.18-24,59.09-59.1,59.09s-59.09-25.91-59.09-59.09C575.82,73.3,599.84,48,634.91,48Zm0,91.48c17.86,0,30.5-14.53,30.5-33.81,0-18.49-12.64-32.39-30.5-32.39s-30.49,13.9-30.49,32.39C604.42,125,617.06,139.5,634.91,139.5Z"/><path class="cls-3" d="M191.24,101A87.46,87.46,0,0,1,56.35,174.56L84,146.93A49.35,49.35,0,0,0,100,150.86c1.22.09,2.46.14,3.7.14a50,50,0,0,0,50-50c0-1.24-.05-2.48-.14-3.7a49.35,49.35,0,0,0-3.93-16.07L177.3,53.61A87.16,87.16,0,0,1,191.24,101Z"/><path class="cls-2" d="M53.74,101a50,50,0,0,1,69.77-45.93l27.63-27.63a87.51,87.51,0,0,0-121,121l27.63-27.63A49.93,49.93,0,0,1,53.74,101Z"/><path d="M84,146.93A49.35,49.35,0,0,0,100,150.86l-23.69,23.7-6.94,6.94a86.72,86.72,0,0,1-13.06-6.94Z"/><path d="M184.24,66.67,169.67,81.23,153.6,97.3a49.35,49.35,0,0,0-3.93-16.07L177.3,53.61A86.72,86.72,0,0,1,184.24,66.67Z"/><path class="cls-1" d="M193.07,11.67a18.49,18.49,0,0,0-26.16,0L151.14,27.44A87.94,87.94,0,0,1,177.3,53.6l15.77-15.77A18.49,18.49,0,0,0,193.07,11.67Z"/><path class="cls-1" d="M30.18,148.4,14.41,164.17a18.5,18.5,0,1,0,26.16,26.16l15.78-15.77A88,88,0,0,1,30.18,148.4Z"/><path class="cls-1" d="M151.14,27.44,123.51,55.07a50.1,50.1,0,0,1,26.16,26.16L177.3,53.6A87.94,87.94,0,0,0,151.14,27.44Z"/><path class="cls-1" d="M57.81,120.77,30.18,148.4a88,88,0,0,0,26.17,26.16L84,146.93A50.2,50.2,0,0,1,57.81,120.77Z"/><path class="cls-1" d="M84,146.93l65.7-65.7a50.1,50.1,0,0,0-26.16-26.16l-65.7,65.7A50.2,50.2,0,0,0,84,146.93Z"/></svg>